ply
format ascii 1.0
element vertex 1200
property float x
property float y
property float z
element face 400
property list uchar int vertex_indices
end_header
99.9986 0.523998 0
99.9945 1.04798 0
99.9876 1.57194 0
99.978 2.09585 0
99.9657 2.6197 0
99.9506 3.14348 0
99.9327 3.66718 0
99.9121 4.19077 0
99.8888 4.71425 0
99.8627 5.2376 0
99.8339 5.76081 0
99.8024 6.28386 0
99.7681 6.80673 0
99.731 7.32942 0
99.6913 7.85191 0
99.6488 8.37418 0
99.6035 8.89622 0
99.5555 9.41802 0
99.5048 9.93956 0
99.4514 10.4608 0
99.3952 10.9818 0
99.3363 11.5025 0
99.2746 12.0228 0
99.2103 12.5429 0
99.1432 13.0626 0
99.0734 13.5819 0
99.0008 14.1008 0
98.9256 14.6194 0
98.8476 15.1376 0
98.767 15.6553 0
98.6836 16.1727 0
98.5975 16.6895 0
98.5087 17.2059 0
98.4171 17.7219 0
98.3229 18.2374 0
98.226 18.7523 0
98.1264 19.2668 0
98.0241 19.7807 0
97.9191 20.294 0
97.8114 20.8069 0
97.7011 21.3191 0
97.588 21.8308 0
97.4723 22.3418 0
97.3539 22.8523 0
97.2328 23.3621 0
97.109 23.8713 0
96.9826 24.3798 0
96.8535 24.8876 0
96.7218 25.3948 0
96.5874 25.9013 0
96.4503 26.407 0
96.3107 26.9121 0
96.1683 27.4164 0
96.0233 27.9199 0
95.8757 28.4227 0
95.7255 28.9247 0
95.5726 29.4259 0
95.4171 29.9263 0
95.259 30.4258 0
95.0982 30.9246 0
94.9349 31.4225 0
94.7689 31.9195 0
94.6004 32.4156 0
94.4292 32.9109 0
94.2554 33.4052 0
94.0791 33.8987 0
93.9002 34.3912 0
93.7187 34.8828 0
93.5346 35.3734 0
93.348 35.863 0
93.1588 36.3516 0
92.967 36.8393 0
92.7727 37.3259 0
92.5759 37.8115 0
92.3764 38.2961 0
92.1745 38.7796 0
91.97 39.2621 0
91.763 39.7435 0
91.5535 40.2238 0
91.3415 40.703 0
91.127 41.181 0
90.9099 41.658 0
90.6904 42.1338 0
90.4684 42.6084 0
90.2439 43.0819 0
90.0169 43.5541 0
89.7874 44.0252 0
89.5555 44.4951 0
89.3211 44.9638 0
89.0843 45.4312 0
88.845 45.8974 0
88.6033 46.3623 0
88.3591 46.8259 0
88.1125 47.2883 0
87.8635 47.7493 0
87.6121 48.2091 0
87.3583 48.6675 0
87.1021 49.1246 0
86.8435 49.5803 0
86.5825 50.0347 0
86.3191 50.4877 0
86.0534 50.9393 0
85.7853 51.3896 0
85.5148 51.8384 0
85.242 52.2857 0
84.9669 52.7317 0
84.6894 53.1762 0
84.4096 53.6192 0
84.1274 54.0608 0
83.843 54.5009 0
83.5563 54.9395 0
83.2673 55.3766 0
82.9759 55.8121 0
82.6823 56.2462 0
82.3865 56.6786 0
82.0883 57.1096 0
81.788 57.5389 0
81.4853 57.9667 0
81.1805 58.3929 0
80.8734 58.8175 0
80.5641 59.2404 0
80.2525 59.6618 0
79.9388 60.0815 0
79.6229 60.4995 0
79.3048 60.9159 0
78.9845 61.3307 0
78.662 61.7437 0
78.3374 62.155 0
78.0107 62.5647 0
77.6817 62.9726 0
77.3507 63.3788 0
77.0175 63.7832 0
76.6823 64.1859 0
76.3449 64.5869 0
76.0054 64.986 0
75.6638 65.3834 0
75.3202 65.779 0
74.9744 66.1728 0
74.6267 66.5647 0
74.2768 66.9548 0
73.925 67.3431 0
73.5711 67.7296 0
73.2152 68.1142 0
72.8573 68.4969 0
72.4973 68.8777 0
72.1354 69.2566 0
71.7715 69.6337 0
71.4057 70.0088 0
71.0378 70.382 0
70.6681 70.7533 0
70.2963 71.1226 0
69.9227 71.49 0
69.5471 71.8554 0
69.1696 72.2188 0
68.7903 72.5803 0
68.409 72.9398 0
68.0259 73.2972 0
67.6408 73.6527 0
67.254 74.0061 0
66.8653 74.3575 0
66.4747 74.7068 0
66.0823 75.0541 0
65.6881 75.3994 0
65.2922 75.7426 0
64.8944 76.0836 0
64.4948 76.4227 0
64.0935 76.7596 0
63.6904 77.0944 0
63.2855 77.427 0
62.8789 77.7576 0
62.4706 78.086 0
62.0606 78.4123 0
61.6488 78.7364 0
61.2354 79.0584 0
60.8203 79.3781 0
60.4035 79.6957 0
59.9851 80.0112 0
59.565 80.3244 0
59.1433 80.6354 0
58.72 80.9442 0
58.295 81.2508 0
57.8685 81.5551 0
57.4403 81.8573 0
57.0106 82.1571 0
56.5793 82.4547 0
56.1465 82.7501 0
55.7121 83.0431 0
55.2762 83.3339 0
54.8387 83.6224 0
54.3998 83.9086 0
53.9594 84.1926 0
53.5175 84.4741 0
53.0741 84.7534 0
52.6293 85.0303 0
52.183 85.305 0
51.7353 85.5772 0
51.2862 85.8471 0
50.8356 86.1147 0
50.3837 86.3799 0
49.9304 86.6427 0
49.4757 86.9032 0
49.0196 87.1612 0
48.5622 87.4169 0
48.1035 87.6701 0
47.6435 87.921 0
47.1821 88.1694 0
46.7195 88.4155 0
46.2555 88.659 0
45.7903 88.9002 0
45.3239 89.1389 0
44.8562 89.3752 0
44.3872 89.609 0
43.9171 89.8404 0
43.4457 90.0693 0
42.9732 90.2957 0
42.4994 90.5196 0
42.0245 90.7411 0
41.5485 90.96 0
41.0713 91.1765 0
40.5929 91.3904 0
40.1135 91.6019 0
39.633 91.8108 0
39.1513 92.0172 0
38.6686 92.2211 0
38.1849 92.4225 0
37.7001 92.6213 0
37.2142 92.8176 0
36.7273 93.0113 0
36.2395 93.2025 0
35.7506 93.3911 0
35.2607 93.5771 0
34.7699 93.7606 0
34.2781 93.9415 0
33.7854 94.1199 0
33.2918 94.2956 0
32.7972 94.4687 0
32.3018 94.6393 0
31.8054 94.8073 0
31.3082 94.9726 0
30.8101 95.1354 0
30.3112 95.2955 0
29.8114 95.453 0
29.3108 95.6079 0
28.8095 95.7602 0
28.3073 95.9098 0
27.8043 96.0568 0
27.3006 96.2012 0
26.7962 96.343 0
26.291 96.482 0
25.785 96.6185 0
25.2784 96.7523 0
24.7711 96.8834 0
24.2631 97.0119 0
23.7544 97.1377 0
23.2451 97.2608 0
22.7351 97.3813 0
22.2246 97.4991 0
21.7134 97.6142 0
21.2016 97.7266 0
20.6892 97.8364 0
20.1763 97.9435 0
19.6628 98.0478 0
19.1487 98.1495 0
18.6342 98.2485 0
18.1191 98.3448 0
17.6035 98.4384 0
17.0875 98.5293 0
16.5709 98.6175 0
16.054 98.7029 0
15.5366 98.7857 0
15.0187 98.8658 0
14.5005 98.9431 0
13.9818 99.0177 0
13.4628 99.0896 0
12.9433 99.1588 0
12.4236 99.2253 0
11.9035 99.289 0
11.383 99.35 0
10.8623 99.4083 0
10.3413 99.4639 0
9.81994 99.5167 0
9.29834 99.5668 0
8.77649 99.6141 0
8.2544 99.6587 0
7.73208 99.7006 0
7.20955 99.7398 0
6.68682 99.7762 0
6.1639 99.8099 0
5.64082 99.8408 0
5.11758 99.869 0
4.59421 99.8944 0
4.0707 99.9171 0
3.54709 99.9371 0
3.02337 99.9543 0
2.49958 99.9688 0
1.97571 99.9805 0
1.45179 99.9895 0
0.927836 99.9957 0
0.403852 99.9992 0
-0.120143 99.9999 0
-0.644135 99.9979 0
-1.16811 99.9932 0
-1.69205 99.9857 0
-2.21595 99.9754 0
-2.73978 99.9625 0
-3.26354 99.9467 0
-3.78721 99.9283 0
-4.31078 99.907 0
-4.83423 99.8831 0
-5.35754 99.8564 0
-5.88071 99.8269 0
-6.40372 99.7948 0
-6.92655 99.7598 0
-7.44919 99.7222 0
-7.97162 99.6818 0
-8.49384 99.6386 0
-9.01582 99.5927 0
-9.53756 99.5441 0
-10.059 99.4928 0
-10.5802 99.4387 0
-11.1011 99.3819 0
-11.6217 99.3224 0
-12.142 99.2601 0
-12.662 99.1951 0
-13.1816 99.1274 0
-13.7008 99.057 0
-14.2197 98.9838 0
-14.7382 98.908 0
-15.2562 98.8294 0
-15.7739 98.7481 0
-16.2911 98.6641 0
-16.8079 98.5774 0
-17.3242 98.4879 0
-17.84 98.3958 0
-18.3554 98.301 0
-18.8702 98.2034 0
-19.3845 98.1032 0
-19.8983 98.0003 0
-20.4115 97.8947 0
-20.9242 97.7864 0
-21.4363 97.6754 0
-21.9479 97.5617 0
-22.4588 97.4454 0
-22.9691 97.3264 0
-23.4787 97.2047 0
-23.9878 97.0803 0
-24.4961 96.9533 0
-25.0038 96.8236 0
-25.5108 96.6913 0
-26.0171 96.5562 0
-26.5227 96.4186 0
-27.0276 96.2783 0
-27.5317 96.1353 0
-28.0351 95.9898 0
-28.5377 95.8415 0
-29.0395 95.6907 0
-29.5405 95.5372 0
-30.0407 95.3811 0
-30.5401 95.2224 0
-31.0386 95.0611 0
-31.5363 94.8971 0
-32.0331 94.7306 0
-32.5291 94.5614 0
-33.0241 94.3897 0
-33.5183 94.2153 0
-34.0115 94.0384 0
-34.5038 93.8589 0
-34.9951 93.6768 0
-35.4855 93.4921 0
-35.9749 93.3049 0
-36.4633 93.1151 0
-36.9507 92.9228 0
-37.4371 92.7279 0
-37.9225 92.5304 0
-38.4068 92.3305 0
-38.8901 92.1279 0
-39.3723 91.9229 0
-39.8535 91.7153 0
-40.3335 91.5052 0
-40.8124 91.2926 0
-41.2902 91.0775 0
-41.7669 90.8599 0
-42.2425 90.6398 0
-42.7168 90.4172 0
-43.19 90.1921 0
-43.662 89.9646 0
-44.1328 89.7346 0
-44.6024 89.5021 0
-45.0708 89.2671 0
-45.5379 89.0297 0
-46.0038 88.7899 0
-46.4684 88.5476 0
-46.9318 88.3029 0
-47.3938 88.0558 0
-47.8546 87.8063 0
-48.314 87.5543 0
-48.7722 87.2999 0
-49.2289 87.0432 0
-49.6844 86.784 0
-50.1384 86.5225 0
-50.5911 86.2586 0
-51.0424 85.9923 0
-51.4923 85.7236 0
-51.9408 85.4527 0
-52.3878 85.1793 0
-52.8334 84.9036 0
-53.2776 84.6256 0
-53.7203 84.3453 0
-54.1615 84.0626 0
-54.6013 83.7777 0
-55.0395 83.4904 0
-55.4762 83.2009 0
-55.9115 82.909 0
-56.3451 82.6149 0
-56.7773 82.3186 0
-57.2078 82.0199 0
-57.6368 81.719 0
-58.0642 81.4159 0
-58.49 81.1105 0
-58.9142 80.8029 0
-59.3368 80.4931 0
-59.7578 80.1811 0
-60.1771 79.8668 0
-60.5948 79.5504 0
-61.0108 79.2318 0
-61.4251 78.911 0
-61.8378 78.5881 0
-62.2487 78.263 0
-62.658 77.9357 0
-63.0655 77.6063 0
-63.4713 77.2748 0
-63.8753 76.9412 0
-64.2776 76.6054 0
-64.6781 76.2675 0
-65.0769 75.9276 0
-65.4738 75.5855 0
-65.869 75.2414 0
-66.2624 74.8952 0
-66.6539 74.547 0
-67.0436 74.1967 0
-67.4315 73.8444 0
-67.8175 73.4901 0
-68.2017 73.1337 0
-68.5839 72.7753 0
-68.9643 72.4149 0
-69.3428 72.0526 0
-69.7194 71.6882 0
-70.0941 71.3219 0
-70.4669 70.9537 0
-70.8377 70.5834 0
-71.2066 70.2113 0
-71.5735 69.8372 0
-71.9385 69.4612 0
-72.3014 69.0833 0
-72.6624 68.7035 0
-73.0215 68.3218 0
-73.3784 67.9382 0
-73.7334 67.5528 0
-74.0864 67.1655 0
-74.4373 66.7764 0
-74.7862 66.3854 0
-75.133 65.9926 0
-75.4778 65.598 0
-75.8205 65.2016 0
-76.1611 64.8034 0
-76.4996 64.4035 0
-76.836 64.0017 0
-77.1704 63.5982 0
-77.5025 63.193 0
-77.8326 62.786 0
-78.1605 62.3773 0
-78.4863 61.9669 0
-78.8099 61.5548 0
-79.1314 61.141 0
-79.4507 60.7255 0
-79.7678 60.3084 0
-80.0827 59.8896 0
-80.3954 59.4691 0
-80.7059 59.047 0
-81.0142 58.6233 0
-81.3203 58.198 0
-81.6242 57.7711 0
-81.9257 57.3426 0
-82.2251 56.9125 0
-82.5222 56.4809 0
-82.817 56.0477 0
-83.1096 55.613 0
-83.3998 55.1767 0
-83.6878 54.7389 0
-83.9735 54.2997 0
-84.2569 53.8589 0
-84.5379 53.4167 0
-84.8167 52.973 0
-85.0931 52.5278 0
-85.3671 52.0812 0
-85.6389 51.6332 0
-85.9082 51.1837 0
-86.1753 50.7329 0
-86.4399 50.2806 0
-86.7022 49.827 0
-86.9621 49.372 0
-87.2196 48.9156 0
-87.4747 48.4579 0
-87.7274 47.9989 0
-87.9778 47.5386 0
-88.2256 47.0769 0
-88.4711 46.614 0
-88.7142 46.1497 0
-88.9548 45.6842 0
-89.1929 45.2175 0
-89.4286 44.7495 0
-89.6619 44.2803 0
-89.8927 43.8099 0
-90.121 43.3382 0
-90.3469 42.8654 0
-90.5702 42.3914 0
-90.7911 41.9163 0
-91.0095 41.4399 0
-91.2254 40.9625 0
-91.4388 40.4839 0
-91.6497 40.0042 0
-91.858 39.5234 0
-92.0639 39.0416 0
-92.2672 38.5586 0
-92.468 38.0746 0
-92.6662 37.5896 0
-92.8619 37.1035 0
-93.055 36.6164 0
-93.2456 36.1283 0
-93.4337 35.6392 0
-93.6191 35.1491 0
-93.802 34.6581 0
-93.9823 34.1661 0
-94.1601 33.6731 0
-94.3352 33.1793 0
-94.5078 32.6845 0
-94.6778 32.1888 0
-94.8451 31.6923 0
-95.0099 31.1949 0
-95.1721 30.6966 0
-95.3316 30.1975 0
-95.4885 29.6975 0
-95.6428 29.1968 0
-95.7945 28.6952 0
-95.9435 28.1929 0
-96.09 27.6897 0
-96.2337 27.1859 0
-96.3749 26.6812 0
-96.5133 26.1759 0
-96.6492 25.6698 0
-96.7824 25.163 0
-96.9129 24.6555 0
-97.0407 24.1474 0
-97.1659 23.6385 0
-97.2885 23.1291 0
-97.4083 22.619 0
-97.5255 22.1082 0
-97.64 21.5969 0
-97.7518 21.085 0
-97.861 20.5725 0
-97.9674 20.0594 0
-98.0712 19.5458 0
-98.1723 19.0316 0
-98.2707 18.517 0
-98.3663 18.0018 0
-98.4593 17.4861 0
-98.5496 16.9699 0
-98.6372 16.4533 0
-98.722 15.9362 0
-98.8042 15.4187 0
-98.8836 14.9008 0
-98.9603 14.3824 0
-99.0343 13.8637 0
-99.1056 13.3446 0
-99.1742 12.8251 0
-99.24 12.3052 0
-99.3031 11.785 0
-99.3635 11.2645 0
-99.4212 10.7437 0
-99.4761 10.2226 0
-99.5283 9.70122 0
-99.5778 9.17956 0
-99.6245 8.65766 0
-99.6685 8.13551 0
-99.7098 7.61314 0
-99.7483 7.09057 0
-99.7841 6.56779 0
-99.8171 6.04484 0
-99.8474 5.52172 0
-99.875 4.99845 0
-99.8998 4.47504 0
-99.9219 3.95151 0
-99.9412 3.42787 0
-99.9578 2.90414 0
-99.9717 2.38033 0
-99.9828 1.85645 0
-99.9911 1.33252 0
-99.9967 0.808555 0
-99.9996 0.284567 0
-99.9997 -0.239428 0
-99.9971 -0.763418 0
-99.9917 -1.28739 0
-99.9836 -1.81132 0
-99.9727 -2.3352 0
-99.9591 -2.85902 0
-99.9428 -3.38276 0
-99.9237 -3.90641 0
-99.9018 -4.42995 0
-99.8772 -4.95337 0
-99.8499 -5.47665 0
-99.8199 -5.99978 0
-99.787 -6.52275 0
-99.7515 -7.04554 0
-99.7132 -7.56813 0
-99.6722 -8.09052 0
-99.6284 -8.61269 0
-99.5819 -9.13461 0
-99.5327 -9.65629 0
-99.4807 -10.1777 0
-99.426 -10.6988 0
-99.3686 -11.2197 0
-99.3084 -11.7402 0
-99.2456 -12.2604 0
-99.18 -12.7803 0
-99.1116 -13.2998 0
-99.0406 -13.819 0
-98.9668 -14.3377 0
-98.8903 -14.8561 0
-98.8111 -15.3741 0
-98.7292 -15.8917 0
-98.6446 -16.4088 0
-98.5572 -16.9254 0
-98.4672 -17.4416 0
-98.3745 -17.9574 0
-98.279 -18.4726 0
-98.1809 -18.9873 0
-98.08 -19.5015 0
-97.9765 -20.0152 0
-97.8703 -20.5283 0
-97.7614 -21.0409 0
-97.6498 -21.5528 0
-97.5355 -22.0642 0
-97.4185 -22.575 0
-97.2989 -23.0851 0
-97.1766 -23.5947 0
-97.0516 -24.1035 0
-96.924 -24.6118 0
-96.7937 -25.1193 0
-96.6608 -25.6261 0
-96.5251 -26.1323 0
-96.3869 -26.6377 0
-96.246 -27.1424 0
-96.1024 -27.6464 0
-95.9563 -28.1496 0
-95.8074 -28.652 0
-95.656 -29.1536 0
-95.5019 -29.6544 0
-95.3452 -30.1545 0
-95.1859 -30.6536 0
-95.024 -31.152 0
-94.8594 -31.6495 0
-94.6923 -32.1461 0
-94.5225 -32.6418 0
-94.3502 -33.1367 0
-94.1753 -33.6306 0
-93.9977 -34.1236 0
-93.8177 -34.6157 0
-93.635 -35.1068 0
-93.4497 -35.597 0
-93.2619 -36.0862 0
-93.0716 -36.5744 0
-92.8786 -37.0616 0
-92.6832 -37.5477 0
-92.4851 -38.0329 0
-92.2846 -38.517 0
-92.0815 -39 0
-91.8759 -39.482 0
-91.6677 -39.9628 0
-91.4571 -40.4426 0
-91.2439 -40.9213 0
-91.0282 -41.3988 0
-90.81 -41.8753 0
-90.5894 -42.3505 0
-90.3662 -42.8246 0
-90.1406 -43.2976 0
-89.9125 -43.7693 0
-89.6819 -44.2398 0
-89.4488 -44.7091 0
-89.2133 -45.1772 0
-88.9754 -45.6441 0
-88.735 -46.1097 0
-88.4921 -46.574 0
-88.2469 -47.0371 0
-87.9992 -47.4988 0
-87.7491 -47.9593 0
-87.4966 -48.4184 0
-87.2417 -48.8763 0
-86.9844 -49.3327 0
-86.7247 -49.7878 0
-86.4626 -50.2416 0
-86.1982 -50.694 0
-85.9313 -51.1449 0
-85.6622 -51.5945 0
-85.3906 -52.0427 0
-85.1168 -52.4894 0
-84.8406 -52.9347 0
-84.562 -53.3785 0
-84.2812 -53.8209 0
-83.998 -54.2618 0
-83.7125 -54.7012 0
-83.4247 -55.1391 0
-83.1347 -55.5754 0
-82.8423 -56.0103 0
-82.5477 -56.4436 0
-82.2508 -56.8754 0
-81.9516 -57.3056 0
-81.6502 -57.7342 0
-81.3466 -58.1613 0
-81.0407 -58.5867 0
-80.7326 -59.0106 0
-80.4223 -59.4328 0
-80.1097 -59.8534 0
-79.795 -60.2723 0
-79.4781 -60.6896 0
-79.159 -61.1053 0
-78.8377 -61.5192 0
-78.5143 -61.9315 0
-78.1887 -62.342 0
-77.8609 -62.7509 0
-77.5311 -63.158 0
-77.1991 -63.5634 0
-76.8649 -63.967 0
-76.5287 -64.3689 0
-76.1903 -64.7691 0
-75.8499 -65.1674 0
-75.5074 -65.564 0
-75.1628 -65.9587 0
-74.8162 -66.3517 0
-74.4675 -66.7428 0
-74.1167 -67.1321 0
-73.7639 -67.5195 0
-73.4091 -67.9051 0
-73.0523 -68.2888 0
-72.6935 -68.6707 0
-72.3326 -69.0506 0
-71.9698 -69.4287 0
-71.605 -69.8049 0
-71.2383 -70.1791 0
-70.8695 -70.5515 0
-70.4989 -70.9218 0
-70.1263 -71.2903 0
-69.7518 -71.6567 0
-69.3753 -72.0213 0
-68.997 -72.3838 0
-68.6168 -72.7443 0
-68.2346 -73.1029 0
-67.8507 -73.4594 0
-67.4648 -73.814 0
-67.0771 -74.1665 0
-66.6875 -74.5169 0
-66.2962 -74.8653 0
-65.903 -75.2117 0
-65.508 -75.556 0
-65.1111 -75.8982 0
-64.7125 -76.2384 0
-64.3122 -76.5764 0
-63.91 -76.9123 0
-63.5061 -77.2462 0
-63.1005 -77.5779 0
-62.6931 -77.9075 0
-62.284 -78.2349 0
-61.8732 -78.5602 0
-61.4607 -78.8833 0
-61.0465 -79.2043 0
-60.6307 -79.5231 0
-60.2132 -79.8397 0
-59.794 -80.1541 0
-59.3732 -80.4663 0
-58.9507 -80.7763 0
-58.5266 -81.0841 0
-58.1009 -81.3897 0
-57.6737 -81.693 0
-57.2448 -81.9941 0
-56.8144 -82.2929 0
-56.3824 -82.5895 0
-55.9489 -82.8838 0
-55.5138 -83.1758 0
-55.0772 -83.4656 0
-54.6391 -83.753 0
-54.1995 -84.0382 0
-53.7584 -84.321 0
-53.3158 -84.6016 0
-52.8717 -84.8798 0
-52.4263 -85.1557 0
-51.9793 -85.4292 0
-51.531 -85.7004 0
-51.0812 -85.9692 0
-50.63 -86.2357 0
-50.1775 -86.4998 0
-49.7235 -86.7616 0
-49.2682 -87.0209 0
-48.8115 -87.2779 0
-48.3535 -87.5325 0
-47.8942 -87.7846 0
-47.4336 -88.0344 0
-46.9716 -88.2817 0
-46.5084 -88.5267 0
-46.0439 -88.7691 0
-45.5781 -89.0092 0
-45.1111 -89.2468 0
-44.6428 -89.482 0
-44.1733 -89.7147 0
-43.7026 -89.9449 0
-43.2307 -90.1726 0
-42.7576 -90.3979 0
-42.2833 -90.6207 0
-41.8079 -90.8411 0
-41.3313 -91.0589 0
-40.8536 -91.2742 0
-40.3748 -91.487 0
-39.8949 -91.6973 0
-39.4138 -91.9051 0
-38.9317 -92.1104 0
-38.4485 -92.3131 0
-37.9643 -92.5133 0
-37.479 -92.711 0
-36.9927 -92.9061 0
-36.5053 -93.0987 0
-36.017 -93.2887 0
-35.5277 -93.4761 0
-35.0374 -93.661 0
-34.5461 -93.8433 0
-34.0539 -94.023 0
-33.5608 -94.2002 0
-33.0667 -94.3747 0
-32.5717 -94.5467 0
-32.0759 -94.7161 0
-31.5791 -94.8829 0
-31.0815 -95.047 0
-30.583 -95.2086 0
-30.0837 -95.3675 0
-29.5836 -95.5239 0
-29.0827 -95.6776 0
-28.5809 -95.8287 0
-28.0784 -95.9771 0
-27.5751 -96.1229 0
-27.071 -96.2661 0
-26.5662 -96.4066 0
-26.0607 -96.5445 0
-25.5545 -96.6797 0
-25.0475 -96.8123 0
-24.5399 -96.9422 0
-24.0316 -97.0695 0
-23.5226 -97.1941 0
-23.013 -97.316 0
-22.5027 -97.4352 0
-21.9919 -97.5518 0
-21.4804 -97.6657 0
-20.9683 -97.7769 0
-20.4557 -97.8855 0
-19.9425 -97.9913 0
-19.4288 -98.0945 0
-18.9145 -98.1949 0
-18.3997 -98.2927 0
-17.8844 -98.3877 0
-17.3686 -98.4801 0
-16.8523 -98.5698 0
-16.3356 -98.6567 0
-15.8184 -98.741 0
-15.3008 -98.8225 0
-14.7828 -98.9013 0
-14.2644 -98.9774 0
-13.7455 -99.0508 0
-13.2263 -99.1215 0
-12.7067 -99.1894 0
-12.1868 -99.2546 0
-11.6666 -99.3171 0
-11.146 -99.3769 0
-10.6251 -99.4339 0
-10.1039 -99.4882 0
-9.58248 -99.5398 0
-9.06077 -99.5887 0
-8.5388 -99.6348 0
-8.0166 -99.6782 0
-7.49419 -99.7188 0
-6.97156 -99.7567 0
-6.44875 -99.7918 0
-5.92576 -99.8243 0
-5.4026 -99.854 0
-4.8793 -99.8809 0
-4.35586 -99.9051 0
-3.83231 -99.9265 0
-3.30864 -99.9452 0
-2.78489 -99.9612 0
-2.26106 -99.9744 0
-1.73717 -99.9849 0
-1.21323 -99.9926 0
-0.689261 -99.9976 0
-0.16527 -99.9999 0
0.358725 -99.9994 0
0.882711 -99.9961 0
1.40667 -99.9901 0
1.93059 -99.9814 0
2.45446 -99.9699 0
2.97827 -99.9556 0
3.50199 -99.9387 0
4.02561 -99.9189 0
4.54913 -99.8965 0
5.07252 -99.8713 0
5.59577 -99.8433 0
6.11886 -99.8126 0
6.64179 -99.7792 0
7.16454 -99.743 0
7.68708 -99.7041 0
8.20942 -99.6625 0
8.73153 -99.6181 0
9.25341 -99.571 0
9.77503 -99.5211 0
10.2964 -99.4685 0
10.8174 -99.4132 0
11.3382 -99.3551 0
11.8587 -99.2944 0
12.3788 -99.2309 0
12.8986 -99.1646 0
13.418 -99.0957 0
13.9371 -99.024 0
14.4558 -98.9496 0
14.9741 -98.8725 0
15.492 -98.7927 0
16.0094 -98.7102 0
16.5264 -98.6249 0
17.043 -98.537 0
17.5591 -98.4463 0
18.0747 -98.353 0
18.5898 -98.2569 0
19.1044 -98.1581 0
19.6185 -98.0567 0
20.1321 -97.9525 0
20.645 -97.8457 0
21.1575 -97.7362 0
21.6693 -97.624 0
22.1806 -97.5091 0
22.6912 -97.3915 0
23.2012 -97.2713 0
23.7106 -97.1484 0
24.2193 -97.0228 0
24.7274 -96.8946 0
25.2348 -96.7637 0
25.7414 -96.6301 0
26.2474 -96.4939 0
26.7527 -96.355 0
27.2572 -96.2135 0
27.761 -96.0694 0
28.264 -95.9226 0
28.7662 -95.7732 0
29.2677 -95.6211 0
29.7683 -95.4665 0
30.2682 -95.3092 0
30.7672 -95.1493 0
31.2653 -94.9867 0
31.7626 -94.8216 0
32.259 -94.6539 0
32.7546 -94.4835 0
33.2492 -94.3106 0
33.743 -94.1351 0
34.2357 -93.957 0
34.7276 -93.7763 0
35.2185 -93.593 0
35.7084 -93.4072 0
36.1974 -93.2188 0
36.6854 -93.0279 0
37.1723 -92.8344 0
37.6583 -92.6383 0
38.1432 -92.4397 0
38.627 -92.2386 0
39.1098 -92.0349 0
39.5915 -91.8287 0
40.0722 -91.62 0
40.5517 -91.4087 0
41.0301 -91.195 0
41.5074 -90.9788 0
41.9836 -90.76 0
42.4586 -90.5388 0
42.9324 -90.315 0
43.4051 -90.0889 0
43.8765 -89.8602 0
44.3468 -89.629 0
44.8158 -89.3954 0
45.2836 -89.1594 0
45.7502 -88.9209 0
46.2155 -88.6799 0
46.6796 -88.4365 0
47.1423 -88.1907 0
47.6038 -87.9425 0
48.0639 -87.6918 0
48.5228 -87.4388 0
48.9803 -87.1833 0
49.4365 -86.9255 0
49.8913 -86.6652 0
50.3447 -86.4026 0
50.7968 -86.1376 0
51.2474 -85.8703 0
51.6967 -85.6006 0
52.1445 -85.3285 0
52.5909 -85.0541 0
53.0359 -84.7774 0
53.4794 -84.4983 0
53.9214 -84.2169 0
54.3619 -83.9332 0
54.801 -83.6472 0
55.2385 -83.3589 0
55.6746 -83.0683 0
56.1091 -82.7754 0
56.5421 -82.4803 0
56.9735 -82.1829 0
57.4033 -81.8832 0
57.8316 -81.5813 0
58.2583 -81.2771 0
58.6834 -80.9707 0
59.1068 -80.6621 0
59.5287 -80.3513 0
59.9489 -80.0383 0
60.3675 -79.7231 0
60.7844 -79.4056 0
61.1997 -79.086 0
61.6132 -78.7643 0
62.0251 -78.4403 0
62.4353 -78.1143 0
62.8437 -77.786 0
63.2505 -77.4557 0
63.6555 -77.1232 0
64.0587 -76.7886 0
64.4602 -76.4518 0
64.8599 -76.113 0
65.2578 -75.7721 0
65.654 -75.4291 0
66.0483 -75.0841 0
66.4409 -74.737 0
66.8316 -74.3878 0
67.2204 -74.0366 0
67.6075 -73.6833 0
67.9926 -73.328 0
68.3759 -72.9708 0
68.7573 -72.6115 0
69.1369 -72.2502 0
69.5145 -71.8869 0
69.8903 -71.5217 0
70.2641 -71.1545 0
70.6359 -70.7853 0
71.0059 -70.4142 0
71.3739 -70.0412 0
71.7399 -69.6662 0
72.104 -69.2894 0
72.466 -68.9106 0
72.8261 -68.5299 0
73.1842 -68.1474 0
73.5403 -67.763 0
73.8944 -67.3767 0
74.2464 -66.9886 0
74.5964 -66.5986 0
74.9444 -66.2068 0
75.2903 -65.8132 0
75.6341 -65.4178 0
75.9758 -65.0206 0
76.3155 -64.6216 0
76.6531 -64.2208 0
76.9885 -63.8182 0
77.3219 -63.414 0
77.6531 -63.0079 0
77.9822 -62.6002 0
78.3091 -62.1907 0
78.6339 -61.7795 0
78.9566 -61.3666 0
79.277 -60.952 0
79.5953 -60.5358 0
79.9115 -60.1179 0
80.2254 -59.6983 0
80.5371 -59.2771 0
80.8466 -58.8543 0
81.1539 -58.4299 0
81.4589 -58.0038 0
81.7617 -57.5762 0
82.0623 -57.147 0
82.3606 -56.7162 0
82.6567 -56.2838 0
82.9505 -55.85 0
83.242 -55.4145 0
83.5312 -54.9776 0
83.8181 -54.5391 0
84.1028 -54.0992 0
84.3851 -53.6577 0
84.6651 -53.2148 0
84.9428 -52.7705 0
85.2181 -52.3246 0
85.4911 -51.8774 0
85.7618 -51.4287 0
86.0301 -50.9786 0
86.2961 -50.5271 0
86.5596 -50.0742 0
86.8208 -49.62 0
87.0796 -49.1644 0
87.3361 -48.7074 0
87.5901 -48.2491 0
87.8417 -47.7895 0
88.0909 -47.3285 0
88.3377 -46.8663 0
88.5821 -46.4028 0
88.824 -45.938 0
89.0635 -45.4719 0
89.3005 -45.0046 0
89.5351 -44.536 0
89.7673 -44.0663 0
89.9969 -43.5953 0
90.2241 -43.1231 0
90.4489 -42.6498 0
90.6711 -42.1752 0
90.8909 -41.6995 0
91.1081 -41.2227 0
91.3229 -40.7447 0
91.5351 -40.2656 0
91.7449 -39.7854 0
91.9521 -39.3042 0
92.1568 -38.8218 0
92.3589 -38.3384 0
92.5585 -37.8539 0
92.7556 -37.3684 0
92.9501 -36.8818 0
93.1421 -36.3943 0
93.3316 -35.9057 0
93.5184 -35.4162 0
93.7027 -34.9256 0
93.8844 -34.4342 0
94.0636 -33.9417 0
94.2402 -33.4484 0
94.4141 -32.9541 0
94.5855 -32.459 0
94.7543 -31.9629 0
94.9205 -31.4659 0
95.084 -30.9681 0
95.245 -30.4695 0
95.4034 -29.97 0
95.5591 -29.4697 0
95.7122 -28.9685 0
95.8627 -28.4666 0
96.0105 -27.9639 0
96.1557 -27.4604 0
96.2983 -26.9562 0
96.4382 -26.4512 0
96.5755 -25.9455 0
96.7101 -25.4391 0
96.8421 -24.932 0
96.9714 -24.4242 0
97.0981 -23.9158 0
97.2221 -23.4067 0
97.3434 -22.8969 0
97.462 -22.3865 0
97.578 -21.8755 0
97.6913 -21.3639 0
97.8019 -20.8517 0
97.9098 -20.339 0
98.015 -19.8256 0
98.1176 -19.3118 0
98.2174 -18.7974 0
98.3146 -18.2825 0
98.409 -17.767 0
98.5008 -17.2511 0
98.5898 -16.7348 0
98.6761 -16.2179 0
98.7598 -15.7007 0
98.8407 -15.1829 0
98.9189 -14.6648 0
98.9944 -14.1463 0
99.0671 -13.6274 0
99.1372 -13.1081 0
99.2045 -12.5884 0
99.2691 -12.0684 0
99.331 -11.5481 0
99.3901 -11.0274 0
99.4465 -10.5065 0
99.5002 -9.98526 0
99.5512 -9.46375 0
99.5994 -8.94198 0
99.6449 -8.41996 0
99.6876 -7.89771 0
99.7277 -7.37524 0
99.7649 -6.85258 0
99.7995 -6.32972 0
99.8313 -5.80669 0
99.8603 -5.2835 0
99.8866 -4.76017 0
99.9102 -4.2367 0
99.931 -3.71312 0
99.9491 -3.18943 0
99.9645 -2.66566 0
99.9771 -2.14182 0
99.9869 -1.61792 0
99.994 -1.09397 0
99.9984 -0.569991 0
100 -0.0459973 0
99.9989 0.477997 0
3 0 1 2
3 3 4 5
3 6 7 8
3 9 10 11
3 12 13 14
3 15 16 17
3 18 19 20
3 21 22 23
3 24 25 26
3 27 28 29
3 30 31 32
3 33 34 35
3 36 37 38
3 39 40 41
3 42 43 44
3 45 46 47
3 48 49 50
3 51 52 53
3 54 55 56
3 57 58 59
3 60 61 62
3 63 64 65
3 66 67 68
3 69 70 71
3 72 73 74
3 75 76 77
3 78 79 80
3 81 82 83
3 84 85 86
3 87 88 89
3 90 91 92
3 93 94 95
3 96 97 98
3 99 100 101
3 102 103 104
3 105 106 107
3 108 109 110
3 111 112 113
3 114 115 116
3 117 118 119
3 120 121 122
3 123 124 125
3 126 127 128
3 129 130 131
3 132 133 134
3 135 136 137
3 138 139 140
3 141 142 143
3 144 145 146
3 147 148 149
3 150 151 152
3 153 154 155
3 156 157 158
3 159 160 161
3 162 163 164
3 165 166 167
3 168 169 170
3 171 172 173
3 174 175 176
3 177 178 179
3 180 181 182
3 183 184 185
3 186 187 188
3 189 190 191
3 192 193 194
3 195 196 197
3 198 199 200
3 201 202 203
3 204 205 206
3 207 208 209
3 210 211 212
3 213 214 215
3 216 217 218
3 219 220 221
3 222 223 224
3 225 226 227
3 228 229 230
3 231 232 233
3 234 235 236
3 237 238 239
3 240 241 242
3 243 244 245
3 246 247 248
3 249 250 251
3 252 253 254
3 255 256 257
3 258 259 260
3 261 262 263
3 264 265 266
3 267 268 269
3 270 271 272
3 273 274 275
3 276 277 278
3 279 280 281
3 282 283 284
3 285 286 287
3 288 289 290
3 291 292 293
3 294 295 296
3 297 298 299
3 300 301 302
3 303 304 305
3 306 307 308
3 309 310 311
3 312 313 314
3 315 316 317
3 318 319 320
3 321 322 323
3 324 325 326
3 327 328 329
3 330 331 332
3 333 334 335
3 336 337 338
3 339 340 341
3 342 343 344
3 345 346 347
3 348 349 350
3 351 352 353
3 354 355 356
3 357 358 359
3 360 361 362
3 363 364 365
3 366 367 368
3 369 370 371
3 372 373 374
3 375 376 377
3 378 379 380
3 381 382 383
3 384 385 386
3 387 388 389
3 390 391 392
3 393 394 395
3 396 397 398
3 399 400 401
3 402 403 404
3 405 406 407
3 408 409 410
3 411 412 413
3 414 415 416
3 417 418 419
3 420 421 422
3 423 424 425
3 426 427 428
3 429 430 431
3 432 433 434
3 435 436 437
3 438 439 440
3 441 442 443
3 444 445 446
3 447 448 449
3 450 451 452
3 453 454 455
3 456 457 458
3 459 460 461
3 462 463 464
3 465 466 467
3 468 469 470
3 471 472 473
3 474 475 476
3 477 478 479
3 480 481 482
3 483 484 485
3 486 487 488
3 489 490 491
3 492 493 494
3 495 496 497
3 498 499 500
3 501 502 503
3 504 505 506
3 507 508 509
3 510 511 512
3 513 514 515
3 516 517 518
3 519 520 521
3 522 523 524
3 525 526 527
3 528 529 530
3 531 532 533
3 534 535 536
3 537 538 539
3 540 541 542
3 543 544 545
3 546 547 548
3 549 550 551
3 552 553 554
3 555 556 557
3 558 559 560
3 561 562 563
3 564 565 566
3 567 568 569
3 570 571 572
3 573 574 575
3 576 577 578
3 579 580 581
3 582 583 584
3 585 586 587
3 588 589 590
3 591 592 593
3 594 595 596
3 597 598 599
3 600 601 602
3 603 604 605
3 606 607 608
3 609 610 611
3 612 613 614
3 615 616 617
3 618 619 620
3 621 622 623
3 624 625 626
3 627 628 629
3 630 631 632
3 633 634 635
3 636 637 638
3 639 640 641
3 642 643 644
3 645 646 647
3 648 649 650
3 651 652 653
3 654 655 656
3 657 658 659
3 660 661 662
3 663 664 665
3 666 667 668
3 669 670 671
3 672 673 674
3 675 676 677
3 678 679 680
3 681 682 683
3 684 685 686
3 687 688 689
3 690 691 692
3 693 694 695
3 696 697 698
3 699 700 701
3 702 703 704
3 705 706 707
3 708 709 710
3 711 712 713
3 714 715 716
3 717 718 719
3 720 721 722
3 723 724 725
3 726 727 728
3 729 730 731
3 732 733 734
3 735 736 737
3 738 739 740
3 741 742 743
3 744 745 746
3 747 748 749
3 750 751 752
3 753 754 755
3 756 757 758
3 759 760 761
3 762 763 764
3 765 766 767
3 768 769 770
3 771 772 773
3 774 775 776
3 777 778 779
3 780 781 782
3 783 784 785
3 786 787 788
3 789 790 791
3 792 793 794
3 795 796 797
3 798 799 800
3 801 802 803
3 804 805 806
3 807 808 809
3 810 811 812
3 813 814 815
3 816 817 818
3 819 820 821
3 822 823 824
3 825 826 827
3 828 829 830
3 831 832 833
3 834 835 836
3 837 838 839
3 840 841 842
3 843 844 845
3 846 847 848
3 849 850 851
3 852 853 854
3 855 856 857
3 858 859 860
3 861 862 863
3 864 865 866
3 867 868 869
3 870 871 872
3 873 874 875
3 876 877 878
3 879 880 881
3 882 883 884
3 885 886 887
3 888 889 890
3 891 892 893
3 894 895 896
3 897 898 899
3 900 901 902
3 903 904 905
3 906 907 908
3 909 910 911
3 912 913 914
3 915 916 917
3 918 919 920
3 921 922 923
3 924 925 926
3 927 928 929
3 930 931 932
3 933 934 935
3 936 937 938
3 939 940 941
3 942 943 944
3 945 946 947
3 948 949 950
3 951 952 953
3 954 955 956
3 957 958 959
3 960 961 962
3 963 964 965
3 966 967 968
3 969 970 971
3 972 973 974
3 975 976 977
3 978 979 980
3 981 982 983
3 984 985 986
3 987 988 989
3 990 991 992
3 993 994 995
3 996 997 998
3 999 1000 1001
3 1002 1003 1004
3 1005 1006 1007
3 1008 1009 1010
3 1011 1012 1013
3 1014 1015 1016
3 1017 1018 1019
3 1020 1021 1022
3 1023 1024 1025
3 1026 1027 1028
3 1029 1030 1031
3 1032 1033 1034
3 1035 1036 1037
3 1038 1039 1040
3 1041 1042 1043
3 1044 1045 1046
3 1047 1048 1049
3 1050 1051 1052
3 1053 1054 1055
3 1056 1057 1058
3 1059 1060 1061
3 1062 1063 1064
3 1065 1066 1067
3 1068 1069 1070
3 1071 1072 1073
3 1074 1075 1076
3 1077 1078 1079
3 1080 1081 1082
3 1083 1084 1085
3 1086 1087 1088
3 1089 1090 1091
3 1092 1093 1094
3 1095 1096 1097
3 1098 1099 1100
3 1101 1102 1103
3 1104 1105 1106
3 1107 1108 1109
3 1110 1111 1112
3 1113 1114 1115
3 1116 1117 1118
3 1119 1120 1121
3 1122 1123 1124
3 1125 1126 1127
3 1128 1129 1130
3 1131 1132 1133
3 1134 1135 1136
3 1137 1138 1139
3 1140 1141 1142
3 1143 1144 1145
3 1146 1147 1148
3 1149 1150 1151
3 1152 1153 1154
3 1155 1156 1157
3 1158 1159 1160
3 1161 1162 1163
3 1164 1165 1166
3 1167 1168 1169
3 1170 1171 1172
3 1173 1174 1175
3 1176 1177 1178
3 1179 1180 1181
3 1182 1183 1184
3 1185 1186 1187
3 1188 1189 1190
3 1191 1192 1193
3 1194 1195 1196
3 1197 1198 1199
